<svg xmlns="http://www.w3.org/2000/svg" viewBox="0 0 256 256" fill="none">
  <defs>
    <linearGradient id="bg" x1="0%" y1="0%" x2="100%" y2="100%">
      <stop offset="0%" stop-color="#6366F1"/>
      <stop offset="100%" stop-color="#9333EA"/>
    </linearGradient>
  </defs>
  <rect width="256" height="256" rx="56" fill="url(#bg)"/>
  <path d="M44 140 C 80 92, 172 92, 208 140 C 172 188, 80 188, 44 140 Z" fill="white"/>
  <circle cx="126" cy="140" r="36" fill="#3730A3"/>
  <circle cx="126" cy="140" r="17" fill="#0B0F19"/>
  <circle cx="118" cy="132" r="7.5" fill="white" opacity="0.95"/>
  <path d="M196 44 L202 70 L228 76 L202 82 L196 108 L190 82 L164 76 L190 70 Z" fill="#FCD34D"/>
  <path d="M196 56 L199 70 L213 73 L199 76 L196 90 L193 76 L179 73 L193 70 Z" fill="#FEF3C7" opacity="0.9"/>
</svg>
